<?xml version="1.0" encoding="utf-8"?>
<!-- Generator: Adobe Illustrator 24.0.2, SVG Export Plug-In . SVG Version: 6.00 Build 0)  -->
<svg version="1.1" id="Layer_1" xmlns="http://www.w3.org/2000/svg" xmlns:xlink="http://www.w3.org/1999/xlink" x="0px" y="0px"
	 viewBox="0 0 512 512" enable-background="new 0 0 512 512" xml:space="preserve">
<g>
	<g>
		<path fill="#1C4670" d="M208.7,446.3c0,18.1-14.8,32.9-32.9,32.9H55c-18.1,0-32.9-14.8-32.9-32.9V160.9
			c0-18.1,14.8-32.9,32.9-32.9h120.7c18.1,0,32.9,14.8,32.9,32.9V446.3z"/>
		<rect x="41.3" y="174.6" fill="#FFFFFF" width="148.2" height="236"/>
		<path fill="#FFFFFF" d="M143.8,151.8c0,2.5-2,4.6-4.6,4.6H91.6c-2.6,0-4.6-2-4.6-4.6l0,0c0-2.5,2-4.6,4.6-4.6h47.6
			C141.7,147.2,143.8,149.2,143.8,151.8L143.8,151.8z"/>
		<g>
			<path fill="#FFFFFF" d="M115.4,461.9c-9.9,0-17.9-8-17.9-17.9c0-9.9,8-17.9,17.9-17.9c9.9,0,17.9,8,17.9,17.9
				C133.3,453.9,125.3,461.9,115.4,461.9z M115.4,432c-6.6,0-12,5.4-12,12s5.4,12,12,12c6.6,0,12-5.4,12-12S122,432,115.4,432z"/>
		</g>
	</g>
	<g>
		<path fill="#1C4670" d="M469.5,453.8c0,18.1-14.8,32.9-32.9,32.9H315.8c-18.1,0-32.9-14.8-32.9-32.9V168.4
			c0-18.1,14.8-32.9,32.9-32.9h120.7c18.1,0,32.9,14.8,32.9,32.9V453.8z"/>
		<rect x="302.1" y="182.2" fill="#FFFFFF" width="148.2" height="236"/>
		<path fill="#FFFFFF" d="M404.6,159.3c0,2.5-2.1,4.6-4.6,4.6h-47.6c-2.5,0-4.6-2-4.6-4.6l0,0c0-2.5,2-4.6,4.6-4.6H400
			C402.5,154.7,404.6,156.8,404.6,159.3L404.6,159.3z"/>
		<g>
			<path fill="#FFFFFF" d="M376.2,469.5c-9.9,0-17.9-8-17.9-17.9c0-9.9,8-17.9,17.9-17.9c9.9,0,17.9,8,17.9,17.9
				C394.1,461.4,386.1,469.5,376.2,469.5z M376.2,439.5c-6.6,0-12,5.4-12,12c0,6.6,5.4,12,12,12c6.6,0,12-5.4,12-12
				C388.2,444.9,382.9,439.5,376.2,439.5z"/>
		</g>
	</g>
	<g>
		<path fill="#768296" d="M404.6,328.2c3.1-5.1,4.9-11.2,4.9-17.6c0-18.8-15.3-34-34-34c-18.8,0-34,15.2-34,34
			c0,6.4,1.8,12.4,4.9,17.6c9.2,16.4,11.1,20.4,11.2,27.9c0.2,11.3,0,20.2,0,20.2h18h18c0,0-0.2-9,0-20.2
			C393.6,348.6,395.4,344.7,404.6,328.2z"/>
		<path fill="#1C4670" d="M375.5,381.5h-12.7c1.9,10.3,12.7,10.3,12.7,10.3s10.9,0,12.8-10.3H375.5z"/>
		<path fill="#1C4670" d="M398.7,364.7c0,3.3-2.6,5.9-5.9,5.9h-34.5c-3.3,0-5.9-2.6-5.9-5.9l0,0c0-3.3,2.6-5.9,5.9-5.9h34.5
			C396,358.8,398.7,361.5,398.7,364.7L398.7,364.7z"/>
		<path fill="#1C4670" d="M396.8,363.6c0,2.6-2.4,4.7-5.4,4.7h-31.7c-3,0-5.4-2.1-5.4-4.7l0,0c0-2.6,2.4-4.8,5.4-4.8h31.7
			C394.4,358.8,396.8,361,396.8,363.6L396.8,363.6z"/>
		<path fill="#1C4670" d="M398.7,376.3c0,3.3-2.6,5.9-5.9,5.9h-34.5c-3.3,0-5.9-2.6-5.9-5.9l0,0c0-3.2,2.6-5.9,5.9-5.9h34.5
			C396,370.4,398.7,373.1,398.7,376.3L398.7,376.3z"/>
		<path fill="#768296" d="M376.2,252.4c1.3,0,2.3,1,2.3,2.3v13.6c0,1.3-1,2.3-2.3,2.3l0,0c-1.3,0-2.3-1-2.3-2.3v-13.6
			C373.9,253.5,374.9,252.4,376.2,252.4L376.2,252.4z"/>
		<path fill="#768296" d="M345.3,260.4c1.1-0.6,2.5-0.3,3.2,0.9l6.8,11.8c0.6,1.1,0.3,2.5-0.9,3.2l0,0c-1.1,0.7-2.5,0.3-3.2-0.8
			l-6.8-11.8C343.8,262.5,344.2,261.1,345.3,260.4L345.3,260.4z"/>
		<path fill="#768296" d="M322.6,282.8c0.6-1.1,2.1-1.5,3.2-0.9l11.8,6.8c1.1,0.6,1.5,2.1,0.9,3.2l0,0c-0.7,1.1-2.1,1.5-3.2,0.9
			l-11.8-6.8C322.3,285.4,322,283.9,322.6,282.8L322.6,282.8z"/>
		<path fill="#768296" d="M314.1,313.6c0-1.3,1-2.3,2.3-2.3H330c1.3,0,2.3,1,2.3,2.3l0,0c0,1.3-1.1,2.3-2.3,2.3h-13.6
			C315.1,315.9,314.1,314.9,314.1,313.6L314.1,313.6z"/>
		<path fill="#768296" d="M322.1,344.4c-0.6-1.1-0.3-2.5,0.9-3.2l11.8-6.8c1.1-0.6,2.5-0.3,3.2,0.9l0,0c0.7,1.1,0.3,2.5-0.8,3.2
			l-11.8,6.8C324.2,345.9,322.8,345.6,322.1,344.4L322.1,344.4z"/>
		<path fill="#768296" d="M407.1,260.4c-1.1-0.6-2.5-0.3-3.2,0.9l-6.8,11.8c-0.6,1.1-0.3,2.5,0.9,3.2l0,0c1.1,0.7,2.5,0.3,3.2-0.8
			l6.8-11.8C408.6,262.5,408.2,261.1,407.1,260.4L407.1,260.4z"/>
		<path fill="#768296" d="M429.8,282.8c-0.6-1.1-2.1-1.5-3.2-0.9l-11.8,6.8c-1.1,0.6-1.5,2.1-0.9,3.2l0,0c0.7,1.1,2.1,1.5,3.2,0.9
			L429,286C430.1,285.4,430.5,283.9,429.8,282.8L429.8,282.8z"/>
		<path fill="#768296" d="M438.3,313.6c0-1.3-1-2.3-2.3-2.3h-13.6c-1.3,0-2.3,1-2.3,2.3l0,0c0,1.3,1,2.3,2.3,2.3H436
			C437.3,315.9,438.3,314.9,438.3,313.6L438.3,313.6z"/>
		<path fill="#768296" d="M430.3,344.4c0.6-1.1,0.3-2.5-0.9-3.2l-11.8-6.8c-1.1-0.6-2.5-0.3-3.2,0.9l0,0c-0.6,1.1-0.2,2.5,0.9,3.2
			l11.8,6.8C428.2,345.9,429.7,345.6,430.3,344.4L430.3,344.4z"/>
		<path fill="#1C4670" d="M396.8,375.2c0,2.6-2.4,4.8-5.4,4.8h-31.7c-3,0-5.4-2.1-5.4-4.8l0,0c0-2.6,2.4-4.7,5.4-4.7h31.7
			C394.4,370.4,396.8,372.5,396.8,375.2L396.8,375.2z"/>
	</g>
	<g>
		<g>
			<path fill="#FFA229" d="M138.7,317.4c-7.3-6-19.6-10-33.5-10c-13.9,0-26.1,3.9-33.5,10h-7.2v13.2c0,12.8,18.2,23.2,40.7,23.2
				c22.5,0,40.7-10.4,40.7-23.2v-13.2H138.7z"/>
			<path fill="#FCD751" d="M138.7,302.6c-7.3-6-19.6-10-33.5-10c-13.9,0-26.1,4-33.5,10h-7.2v13.2c0,12.8,18.2,23.2,40.7,23.2
				c22.5,0,40.7-10.4,40.7-23.2v-13.2H138.7z"/>
			<path fill="#FFA229" d="M138.7,287.8c-7.4-6-19.6-10-33.5-10c-13.9,0-26.1,4-33.5,10h-7.2V301c0,12.8,18.2,23.2,40.7,23.2
				c22.5,0,40.7-10.4,40.7-23.2v-13.1H138.7z"/>
			<path fill="#FCD751" d="M138.7,273.1c-7.4-6-19.6-10-33.5-10c-13.9,0-26.1,4-33.5,10h-7.2v13.2c0,12.8,18.2,23.2,40.7,23.2
				c22.5,0,40.7-10.4,40.7-23.2v-13.2H138.7z"/>
			<path fill="#FFA229" d="M138.7,258.3c-7.4-6-19.6-10-33.5-10c-13.9,0-26.1,3.9-33.5,10h-7.2v13.2c0,12.8,18.2,23.2,40.7,23.2
				c22.5,0,40.7-10.4,40.7-23.2v-13.2H138.7z"/>
			<path fill="#FCD751" d="M145.9,258.3c0,12.8-18.2,23.2-40.7,23.2c-22.5,0-40.7-10.4-40.7-23.2c0-12.8,18.2-23.2,40.7-23.2
				C127.7,235.1,145.9,245.5,145.9,258.3z"/>
			<path fill="#FFA229" d="M139.5,258.3c0,10.8-15.3,19.5-34.3,19.5c-18.9,0-34.3-8.7-34.3-19.5c0-10.8,15.3-19.5,34.3-19.5
				C124.1,238.8,139.5,247.5,139.5,258.3z"/>
			<path fill="#FCD751" d="M131.8,258.3c0,8.4-11.9,15.1-26.6,15.1c-14.7,0-26.6-6.8-26.6-15.1c0-8.4,11.9-15.1,26.6-15.1
				C119.9,243.1,131.8,249.9,131.8,258.3z"/>
			<g>
				<path fill="#FFA229" d="M102.7,267.9c-1.8,0-3.3-0.2-4.6-0.3c-1.3-0.2-2.4-0.4-3.1-0.6l1.8-3c0.5,0.2,1.3,0.4,2.3,0.6
					c1,0.2,2.2,0.3,3.6,0.4v-5.4c-1-0.2-1.9-0.5-2.9-0.8c-0.9-0.3-1.8-0.7-2.5-1.1c-0.7-0.4-1.3-0.9-1.8-1.5
					c-0.4-0.6-0.7-1.3-0.7-2.1c0-1.5,0.7-2.7,2.1-3.5c1.4-0.8,3.3-1.4,5.7-1.6v-2.4h4.8v2.3c1.4,0.1,2.6,0.2,3.6,0.3
					c1,0.2,1.9,0.3,2.8,0.6l-1.7,2.9c-0.5-0.1-1.2-0.3-2-0.4c-0.8-0.1-1.7-0.3-2.7-0.3v5c1,0.2,1.9,0.5,2.9,0.8
					c1,0.3,1.8,0.7,2.6,1.1c0.8,0.4,1.4,0.9,1.9,1.5c0.5,0.6,0.7,1.2,0.7,2c0,1.6-0.7,2.9-2.2,3.8c-1.4,0.9-3.4,1.5-5.9,1.8v2.5
					h-4.8V267.9z M100.9,253.6c0,0.5,0.4,1,1.1,1.3c0.7,0.4,1.6,0.7,2.7,1v-4.3c-1.5,0-2.5,0.2-3,0.6
					C101.2,252.6,100.9,253.1,100.9,253.6z M109.6,262.5c0-0.6-0.4-1-1.2-1.4c-0.8-0.3-1.7-0.7-2.8-1v4.7c1.4-0.1,2.4-0.3,3-0.7
					C109.2,263.7,109.6,263.2,109.6,262.5z"/>
			</g>
		</g>
		<g>
			<g>
				<path fill="#FCD751" d="M173.4,330.4c0,20.2-16.4,36.7-36.7,36.7c-20.3,0-36.7-16.4-36.7-36.7c0-20.2,16.4-36.7,36.7-36.7
					C157,293.7,173.4,310.2,173.4,330.4z"/>
				<path fill="#FFA229" d="M167.2,330.4c0,16.8-13.6,30.5-30.5,30.5c-16.8,0-30.5-13.6-30.5-30.5c0-16.8,13.7-30.5,30.5-30.5
					C153.6,300,167.2,313.6,167.2,330.4z"/>
				<path fill="#FCD751" d="M161.4,330.4c0,13.6-11.1,24.7-24.7,24.7c-13.6,0-24.7-11.1-24.7-24.7c0-13.7,11.1-24.7,24.7-24.7
					C150.4,305.7,161.4,316.8,161.4,330.4z"/>
				<g>
					<path fill="#FFA229" d="M134.4,346.1c-1.6-0.1-3.1-0.2-4.3-0.5c-1.2-0.3-2.2-0.6-2.9-1l1.7-4.9c0.5,0.3,1.2,0.6,2.2,0.9
						c0.9,0.3,2,0.5,3.3,0.6v-8.8c-0.9-0.4-1.8-0.9-2.7-1.3c-0.9-0.5-1.7-1.1-2.3-1.8c-0.7-0.7-1.3-1.5-1.7-2.5
						c-0.4-1-0.6-2.1-0.6-3.4c0-2.5,0.6-4.4,2-5.8c1.3-1.4,3.1-2.3,5.3-2.6V311h4.5v3.8c1.3,0.1,2.4,0.3,3.3,0.5
						c0.9,0.3,1.8,0.6,2.6,0.9l-1.6,4.8c-0.5-0.2-1.1-0.5-1.9-0.7c-0.7-0.3-1.6-0.4-2.5-0.5v8.1c0.9,0.4,1.8,0.8,2.7,1.4
						c0.9,0.5,1.7,1.1,2.4,1.8c0.7,0.7,1.3,1.5,1.7,2.4c0.4,0.9,0.7,2,0.7,3.3c0,2.6-0.7,4.7-2,6.2c-1.3,1.5-3.2,2.5-5.5,2.9v4h-4.5
						V346.1z M132.7,322.9c0,0.9,0.3,1.6,1,2.2c0.7,0.6,1.5,1.1,2.6,1.6v-7c-1.4,0-2.3,0.4-2.8,1C132.9,321.2,132.7,322,132.7,322.9
						z M140.7,337.4c0-0.9-0.3-1.7-1.1-2.3c-0.7-0.6-1.6-1.1-2.7-1.6v7.6c1.3-0.1,2.2-0.5,2.8-1.2
						C140.4,339.3,140.7,338.4,140.7,337.4z"/>
				</g>
			</g>
		</g>
	</g>
	<g>
		<g>
			<path fill="#768296" d="M242.7,13.4H126.9c-16.2,0-29.5,13.3-29.5,29.5v186.4c0,16.2,13.3,29.5,29.5,29.5h40.3L147,314.3
				l77.6-55.6h18.1c16.2,0,29.5-13.3,29.5-29.5V42.9C272.2,26.6,258.9,13.4,242.7,13.4z"/>
		</g>
		<g>
			<g>
				<rect x="168.6" y="62" fill="#FFFFFF" width="32.4" height="87.6"/>
			</g>
			<g>
				<rect x="168.6" y="177.5" fill="#FFFFFF" width="32.4" height="29.3"/>
			</g>
		</g>
	</g>
	<g>
		<g>
			<g>
				<g>
					<path fill="#FFA229" d="M362.3,293.5c13.6-14.7,21.7-33.3,21.7-53.6c0-47.2-43.8-85.4-97.9-85.4c-54.1,0-97.9,38.2-97.9,85.4
						c0,47.2,43.8,85.4,97.9,85.4c13.9,0,27.1-2.6,39-7.1l50.9,25.1L362.3,293.5z"/>
				</g>
			</g>
		</g>
		<g>
			<g>
				<g>
					<g>
						<g>
							<path fill="#FFFFFF" d="M254.9,239.9c0,9-7.3,16.2-16.2,16.2c-8.9,0-16.2-7.3-16.2-16.2c0-8.9,7.3-16.2,16.2-16.2
								C247.6,223.7,254.9,230.9,254.9,239.9z"/>
						</g>
					</g>
				</g>
			</g>
			<g>
				<g>
					<g>
						<g>
							<path fill="#FFFFFF" d="M302.3,239.9c0,9-7.3,16.2-16.2,16.2c-8.9,0-16.2-7.3-16.2-16.2c0-8.9,7.3-16.2,16.2-16.2
								C295.1,223.7,302.3,230.9,302.3,239.9z"/>
						</g>
					</g>
				</g>
			</g>
			<g>
				<g>
					<g>
						<g>
							<path fill="#FFFFFF" d="M349.8,239.9c0,9-7.3,16.2-16.2,16.2c-9,0-16.2-7.3-16.2-16.2c0-8.9,7.2-16.2,16.2-16.2
								C342.5,223.7,349.8,230.9,349.8,239.9z"/>
						</g>
					</g>
				</g>
			</g>
		</g>
	</g>
</g>
</svg>
